<svg 
 xmlns="http://www.w3.org/2000/svg"
 xmlns:xlink="http://www.w3.org/1999/xlink"
 width="30px" height="24px">
<path fill-rule="evenodd"  fill="rgb(0, 0, 0)"
 d="M30.000,11.642 C30.000,10.319 28.925,9.242 27.603,9.242 L4.886,9.242 L4.886,2.550 C4.886,1.879 5.431,1.334 6.101,1.334 C6.770,1.334 7.315,1.879 7.315,2.550 C7.315,2.919 7.613,3.217 7.981,3.217 C8.350,3.217 8.648,2.919 8.648,2.550 C8.648,1.143 7.505,-0.001 6.101,-0.001 C4.696,-0.001 3.553,1.143 3.553,2.550 L3.553,9.242 L2.396,9.242 C1.075,9.242 -0.000,10.319 -0.000,11.642 C-0.000,12.734 0.732,13.656 1.731,13.946 C1.737,15.934 1.807,17.931 2.607,19.410 C3.235,20.569 4.236,21.328 5.683,21.724 L4.993,23.017 C4.820,23.342 4.943,23.747 5.268,23.920 C5.368,23.974 5.475,23.999 5.581,23.999 C5.819,23.999 6.050,23.871 6.170,23.645 L7.059,21.976 C7.511,22.026 7.995,22.050 8.514,22.050 L21.486,22.050 C22.005,22.050 22.489,22.026 22.941,21.976 L23.830,23.645 C23.950,23.871 24.180,23.999 24.419,23.999 C24.524,23.999 24.632,23.974 24.732,23.920 C25.057,23.747 25.180,23.342 25.006,23.017 L24.317,21.724 C25.764,21.328 26.764,20.569 27.392,19.410 C28.193,17.931 28.263,15.934 28.269,13.946 C29.268,13.656 30.000,12.734 30.000,11.642 ZM21.486,20.716 L8.514,20.716 C3.551,20.716 3.097,18.430 3.065,14.041 L26.934,14.041 C26.903,18.430 26.448,20.716 21.486,20.716 ZM27.603,12.706 L2.396,12.706 C1.810,12.706 1.333,12.229 1.333,11.642 C1.333,11.054 1.810,10.577 2.396,10.577 L27.603,10.577 C28.189,10.577 28.666,11.054 28.666,11.642 C28.666,12.229 28.189,12.706 27.603,12.706 Z"/>
</svg>