<svg 
 xmlns="http://www.w3.org/2000/svg"
 xmlns:xlink="http://www.w3.org/1999/xlink"
 width="29px" height="19px">
<path fill-rule="evenodd"  fill="rgb(0, 0, 0)"
 d="M26.177,7.364 L26.177,7.334 L26.177,2.795 C26.177,0.751 24.689,-0.001 23.293,-0.001 L5.614,-0.001 C4.218,-0.001 2.729,0.720 2.729,2.795 L2.729,7.334 L2.729,7.364 C1.334,7.515 -0.000,8.417 -0.000,10.491 L-0.000,14.039 C-0.000,14.640 0.496,15.121 1.116,15.121 L1.489,15.121 L1.489,17.916 C1.489,18.518 1.985,18.999 2.605,18.999 L3.660,18.999 C4.280,18.999 4.776,18.518 4.776,17.916 L4.776,15.090 L24.223,15.090 L24.223,17.916 C24.223,18.518 24.720,18.999 25.340,18.999 L26.395,18.999 C27.015,18.999 27.511,18.518 27.511,17.916 L27.511,15.090 L27.883,15.090 C28.504,15.090 29.000,14.610 29.000,14.008 L29.000,10.491 C28.907,8.417 27.573,7.515 26.177,7.364 ZM3.784,2.795 L3.846,2.795 C3.846,1.382 4.807,1.081 5.614,1.081 L23.293,1.081 C24.099,1.081 25.061,1.382 25.061,2.795 L25.061,7.334 L24.223,7.334 L24.223,4.749 C24.223,4.148 23.727,3.667 23.107,3.667 L16.283,3.667 C15.663,3.667 15.167,4.148 15.167,4.749 L15.167,7.334 L13.864,7.334 L13.864,4.749 C13.864,4.148 13.368,3.667 12.747,3.667 L5.924,3.667 C5.304,3.667 4.807,4.148 4.807,4.749 L4.807,7.334 L3.784,7.334 L3.784,2.795 ZM23.107,4.749 L23.107,7.334 L16.283,7.334 L16.283,4.749 L23.107,4.749 ZM12.809,4.749 L12.809,7.334 L5.986,7.334 L5.986,4.749 L12.809,4.749 ZM3.629,17.916 L2.574,17.916 L2.574,15.090 L3.629,15.090 L3.629,17.916 ZM26.332,17.916 L25.278,17.916 L25.278,15.090 L26.332,15.090 L26.332,17.916 ZM27.790,14.039 L26.332,14.039 L25.278,14.039 L3.629,14.039 L2.574,14.039 L1.085,14.039 L1.085,12.444 L27.790,12.444 L27.790,14.039 ZM27.790,11.363 L1.085,11.363 L1.085,10.491 C1.085,8.687 2.450,8.417 3.225,8.417 L3.815,8.417 L5.955,8.417 L12.778,8.417 L16.283,8.417 L23.107,8.417 L25.061,8.417 L25.650,8.417 C26.457,8.417 27.790,8.687 27.790,10.491 L27.790,11.363 L27.790,11.363 Z"/>
</svg>