<svg 
 xmlns="http://www.w3.org/2000/svg"
 xmlns:xlink="http://www.w3.org/1999/xlink"
 width="20px" height="20px">
<path fill-rule="evenodd"  fill="rgb(131, 192, 86)"
 d="M18.610,19.992 L1.391,19.992 C0.621,19.992 0.000,19.391 0.000,18.651 L0.000,12.743 L2.776,12.743 L2.776,17.309 L17.223,17.309 L17.223,12.743 L20.000,12.743 L20.000,18.651 C20.000,19.392 19.379,19.992 18.610,19.992 ZM10.410,12.329 C10.071,12.659 9.746,12.290 9.746,12.290 L5.771,7.647 C5.771,7.647 5.166,7.095 5.822,7.095 C6.478,7.095 8.062,7.095 8.062,7.095 C8.062,7.095 8.062,6.724 8.062,6.151 C8.062,4.518 8.062,1.547 8.062,0.336 C8.062,0.336 7.973,0.007 8.486,0.007 C9.003,0.007 11.268,0.007 11.639,0.007 C12.009,0.007 12.000,0.284 12.000,0.284 C12.000,1.459 12.000,4.533 12.000,6.112 C12.000,6.624 12.000,6.956 12.000,6.956 C12.000,6.956 13.271,6.956 14.067,6.956 C14.864,6.956 14.264,7.534 14.264,7.534 C14.264,7.534 10.882,11.874 10.410,12.329 Z"/>
</svg>