<svg 
 xmlns="http://www.w3.org/2000/svg"
 xmlns:xlink="http://www.w3.org/1999/xlink"
 width="25px" height="24px">
<path fill-rule="evenodd"  fill="rgb(124, 130, 140)"
 d="M22.149,-0.001 L3.526,-0.001 C1.954,-0.001 0.675,1.260 0.675,2.811 L0.675,21.186 C0.675,22.737 1.954,23.999 3.526,23.999 L22.149,23.999 C23.721,23.999 25.000,22.737 25.000,21.186 L25.000,2.811 C25.000,1.260 23.721,-0.001 22.149,-0.001 ZM23.099,21.186 C23.099,21.703 22.673,22.124 22.149,22.124 L16.733,22.124 L16.733,14.483 L19.669,14.483 L20.154,11.577 L16.733,11.577 L16.733,9.561 C16.733,8.766 17.352,8.155 18.159,8.155 L20.106,8.155 L20.106,5.249 L18.159,5.249 C15.739,5.249 13.789,7.182 13.789,9.570 L13.789,11.577 L10.937,11.577 L10.937,14.483 L13.789,14.483 L13.789,22.124 L3.526,22.124 C3.002,22.124 2.576,21.703 2.576,21.186 L2.576,2.811 C2.576,2.294 3.002,1.874 3.526,1.874 L22.149,1.874 C22.673,1.874 23.099,2.294 23.099,2.811 L23.099,21.186 Z"/>
</svg>