<svg 
 xmlns="http://www.w3.org/2000/svg"
 xmlns:xlink="http://www.w3.org/1999/xlink"
 width="25px" height="24px">
<path fill-rule="evenodd"  fill="rgb(124, 130, 140)"
 d="M16.723,23.999 L7.601,23.999 C3.404,23.999 -0.000,20.640 -0.000,16.499 L-0.000,7.498 C-0.000,3.357 3.404,-0.001 7.601,-0.001 L16.723,-0.001 C20.920,-0.001 24.324,3.357 24.324,7.498 L24.324,16.499 C24.324,20.640 20.920,23.999 16.723,23.999 ZM22.044,7.498 C22.044,4.604 19.657,2.249 16.723,2.249 L7.601,2.249 C4.667,2.249 2.280,4.604 2.280,7.498 L2.280,16.499 C2.280,19.394 4.667,21.749 7.601,21.749 L16.723,21.749 C19.657,21.749 22.044,19.394 22.044,16.499 L22.044,7.498 ZM18.699,6.348 C18.252,6.348 17.889,5.990 17.889,5.549 C17.889,5.107 18.252,4.749 18.699,4.749 C19.147,4.749 19.509,5.107 19.509,5.549 C19.509,5.990 19.147,6.348 18.699,6.348 ZM12.162,17.999 C8.804,17.999 6.081,15.312 6.081,11.999 C6.081,8.685 8.804,5.999 12.162,5.999 C15.520,5.999 18.243,8.685 18.243,11.999 C18.243,15.312 15.520,17.999 12.162,17.999 ZM12.162,8.249 C10.067,8.249 8.361,9.930 8.361,11.999 C8.361,14.066 10.067,15.749 12.162,15.749 C14.257,15.749 15.963,14.066 15.963,11.999 C15.963,9.930 14.257,8.249 12.162,8.249 Z"/>
</svg>