<svg 
 xmlns="http://www.w3.org/2000/svg"
 xmlns:xlink="http://www.w3.org/1999/xlink"
 width="20px" height="20px">
<path fill-rule="evenodd"  fill="rgb(28, 32, 38)"
 d="M10.000,19.995 C4.478,19.995 0.001,18.567 0.001,16.807 C0.001,15.377 2.959,14.166 7.032,13.763 C7.460,14.382 7.861,14.922 8.195,15.356 C4.889,15.556 2.721,16.274 1.914,16.807 C2.859,17.433 5.669,18.314 10.000,18.314 C14.330,18.314 17.140,17.433 18.085,16.807 C17.278,16.273 15.109,15.555 11.799,15.356 C12.133,14.921 12.533,14.382 12.960,13.762 C17.037,14.164 19.998,15.376 19.997,16.807 C19.997,18.567 15.522,19.995 10.000,19.995 ZM4.761,5.265 C4.761,2.358 7.105,0.002 9.999,0.002 C12.892,0.002 15.237,2.358 15.237,5.265 C15.237,9.408 9.999,15.592 9.999,15.592 C9.999,15.592 4.761,9.430 4.761,5.265 ZM12.583,4.951 C12.583,3.517 11.426,2.355 9.999,2.355 C8.573,2.355 7.416,3.517 7.416,4.951 C7.416,6.385 8.573,7.547 9.999,7.547 C11.426,7.547 12.583,6.385 12.583,4.951 Z"/>
</svg>