<svg 
 xmlns="http://www.w3.org/2000/svg"
 xmlns:xlink="http://www.w3.org/1999/xlink"
 width="20px" height="15px">
<path fill-rule="evenodd"  fill="rgb(131, 192, 86)"
 d="M17.554,14.999 L2.446,14.999 C1.096,14.999 -0.000,13.918 -0.000,12.588 L-0.000,2.409 C-0.000,1.079 1.096,-0.001 2.446,-0.001 L17.558,-0.001 C18.907,-0.001 20.004,1.083 20.000,2.413 L20.000,12.588 C20.000,13.918 18.903,14.999 17.554,14.999 ZM18.882,12.588 L18.882,2.413 C18.882,1.691 18.286,1.104 17.554,1.104 L2.446,1.104 C1.713,1.104 1.117,1.691 1.117,2.413 L1.117,12.588 C1.117,13.310 1.713,13.897 2.446,13.897 L17.558,13.897 C18.291,13.897 18.886,13.310 18.886,12.588 L18.882,12.588 ZM17.546,12.748 C17.434,12.862 17.289,12.919 17.140,12.919 C17.004,12.919 16.863,12.870 16.755,12.768 L11.781,8.110 L10.387,9.342 C10.283,9.436 10.147,9.485 10.014,9.485 C9.882,9.485 9.749,9.440 9.642,9.346 L8.284,8.151 L3.281,12.764 C3.174,12.862 3.037,12.911 2.901,12.911 C2.752,12.911 2.603,12.849 2.491,12.735 C2.280,12.511 2.292,12.164 2.516,11.956 L7.444,7.409 L2.495,3.050 C2.263,2.845 2.243,2.499 2.450,2.270 C2.657,2.042 3.008,2.022 3.240,2.225 L8.595,6.948 C8.628,6.973 8.657,6.997 8.686,7.026 C8.686,7.030 8.690,7.034 8.694,7.038 L10.010,8.196 L16.755,2.229 C16.987,2.026 17.339,2.046 17.546,2.270 C17.753,2.499 17.732,2.845 17.504,3.050 L12.613,7.372 L17.525,11.969 C17.748,12.177 17.757,12.527 17.546,12.748 Z"/>
</svg>