<svg 
 xmlns="http://www.w3.org/2000/svg"
 xmlns:xlink="http://www.w3.org/1999/xlink"
 width="20px" height="20px">
<path fill-rule="evenodd"  fill="rgb(131, 192, 86)"
 d="M19.986,16.460 C19.923,15.980 19.645,15.565 19.225,15.323 L14.291,12.482 C13.687,12.134 12.920,12.236 12.427,12.729 L11.455,13.701 C11.196,13.959 10.787,13.982 10.504,13.754 C9.737,13.138 8.983,12.459 8.262,11.738 C7.540,11.016 6.861,10.261 6.245,9.495 C6.017,9.212 6.039,8.802 6.298,8.544 L7.270,7.572 C7.763,7.079 7.865,6.312 7.516,5.708 L4.676,0.774 C4.434,0.354 4.019,0.076 3.539,0.013 C3.058,-0.051 2.586,0.109 2.243,0.452 L0.779,1.917 C-0.243,2.938 -0.260,4.808 0.732,7.181 C1.687,9.462 3.467,11.973 5.746,14.253 C8.025,16.532 10.537,18.312 12.818,19.266 C13.986,19.755 15.032,19.999 15.915,19.999 C16.826,19.999 17.564,19.739 18.083,19.220 L19.547,17.755 C19.890,17.413 20.050,16.941 19.986,16.460 ZM13.968,13.044 L18.902,15.885 C19.146,16.025 19.307,16.266 19.344,16.545 C19.375,16.779 19.314,17.010 19.176,17.196 L12.619,13.453 L12.885,13.187 C13.172,12.901 13.617,12.842 13.968,13.044 ZM3.454,0.655 C3.733,0.692 3.974,0.853 4.114,1.097 L6.955,6.031 C7.157,6.382 7.098,6.828 6.812,7.114 L6.567,7.358 L2.804,0.823 C2.958,0.709 3.142,0.647 3.334,0.647 C3.374,0.647 3.414,0.650 3.454,0.655 ZM17.624,18.762 C16.812,19.574 15.152,19.540 13.068,18.668 C10.863,17.746 8.425,16.015 6.204,13.795 C3.983,11.574 2.253,9.136 1.330,6.930 C0.459,4.847 0.425,3.186 1.237,2.375 L2.324,1.287 L6.093,7.832 L5.840,8.086 C5.347,8.578 5.304,9.360 5.740,9.901 C6.371,10.686 7.065,11.457 7.803,12.196 C8.541,12.933 9.313,13.628 10.097,14.259 C10.639,14.695 11.420,14.652 11.913,14.159 L12.144,13.928 L18.710,17.676 L17.624,18.762 Z"/>
</svg>