<svg 
 xmlns="http://www.w3.org/2000/svg"
 xmlns:xlink="http://www.w3.org/1999/xlink"
 width="15px" height="22px">
<path fill-rule="evenodd"  fill="rgb(131, 192, 86)"
 d="M13.942,11.696 L8.140,21.685 C8.028,21.878 7.827,21.997 7.609,21.999 C7.607,21.999 7.606,21.999 7.604,21.999 C7.388,21.999 7.187,21.884 7.073,21.694 L1.119,11.800 C0.387,10.580 -0.000,9.174 -0.000,7.733 C-0.000,3.469 3.364,-0.002 7.500,-0.002 C11.635,-0.002 15.000,3.469 15.000,7.733 C15.000,9.132 14.634,10.501 13.942,11.696 ZM7.500,1.279 C4.054,1.279 1.241,4.179 1.241,7.733 C1.241,8.934 1.572,10.105 2.182,11.121 L7.594,20.116 L12.869,11.034 C13.445,10.040 13.754,8.899 13.754,7.733 C13.754,4.179 10.946,1.279 7.500,1.279 ZM7.500,11.600 C5.405,11.600 3.750,9.852 3.750,7.733 C3.750,5.601 5.432,3.866 7.500,3.866 C9.568,3.866 11.250,5.601 11.250,7.733 C11.250,9.829 9.621,11.600 7.500,11.600 ZM7.500,5.146 C6.121,5.146 4.991,6.312 4.991,7.733 C4.991,9.158 6.114,10.320 7.500,10.320 C8.908,10.320 10.004,9.137 10.004,7.733 C10.004,6.312 8.878,5.146 7.500,5.146 Z"/>
</svg>