<svg 
 xmlns="http://www.w3.org/2000/svg"
 xmlns:xlink="http://www.w3.org/1999/xlink"
 width="27px" height="27px">
<path fill-rule="evenodd"  fill="rgb(0, 0, 0)"
 d="M26.924,12.151 C26.734,11.610 26.222,11.248 25.648,11.249 L9.899,11.249 C9.651,11.249 9.449,11.450 9.449,11.699 L9.449,13.049 L8.549,13.049 L8.549,6.749 L8.999,6.749 C9.745,6.749 10.349,6.145 10.349,5.399 C10.349,4.653 9.745,4.049 8.999,4.049 L8.549,4.049 L8.549,2.699 L8.999,2.699 C9.248,2.699 9.449,2.498 9.449,2.249 L9.449,0.449 C9.449,0.200 9.248,-0.001 8.999,-0.001 L0.450,-0.001 C0.201,-0.001 -0.000,0.200 -0.000,0.449 L-0.000,2.249 C-0.000,2.498 0.201,2.699 0.450,2.699 L0.900,2.699 L0.900,13.499 C0.900,13.748 1.101,13.949 1.350,13.949 L1.800,13.949 C1.944,16.847 3.465,18.053 4.814,19.120 C6.524,20.470 8.135,21.743 7.195,26.460 C7.145,26.703 7.302,26.941 7.545,26.991 C7.580,26.998 7.614,27.000 7.649,26.999 L22.049,26.999 C22.297,26.999 22.498,26.798 22.498,26.550 C22.498,26.469 22.477,26.389 22.436,26.320 C21.149,24.178 21.149,22.436 21.149,19.799 C23.911,18.899 25.905,16.591 26.098,13.872 C26.802,13.625 27.171,12.855 26.924,12.151 ZM8.999,4.949 C9.248,4.949 9.449,5.150 9.449,5.399 C9.449,5.648 9.248,5.849 8.999,5.849 L8.549,5.849 L8.549,4.949 L8.999,4.949 ZM0.900,1.799 L0.900,0.899 L8.549,0.899 L8.549,1.799 L0.900,1.799 ZM1.800,2.699 L7.649,2.699 L7.649,13.049 L1.800,13.049 L1.800,2.699 ZM8.189,26.100 C8.999,21.275 7.168,19.799 5.399,18.413 C4.081,17.383 2.848,16.407 2.700,13.949 L8.999,13.949 C9.202,16.649 11.186,18.899 13.922,19.799 C13.922,22.337 13.922,24.052 12.761,26.100 L8.189,26.100 ZM21.288,26.100 L13.810,26.100 C14.808,24.110 14.849,22.346 14.849,20.051 C15.440,20.181 16.044,20.247 16.649,20.249 L18.449,20.249 C19.054,20.247 19.657,20.181 20.249,20.051 C20.249,22.346 20.285,24.110 21.288,26.100 ZM18.449,19.349 L16.649,19.349 C13.103,19.349 10.192,16.964 9.926,13.949 L25.172,13.949 C24.906,16.964 21.995,19.349 18.449,19.349 ZM25.648,13.049 L10.349,13.049 L10.349,12.149 L25.648,12.149 C25.897,12.149 26.098,12.351 26.098,12.599 C26.098,12.848 25.897,13.049 25.648,13.049 Z"/>
</svg>