<?xml version="1.0" encoding="utf-8"?>
<!-- Generator: Adobe Illustrator 24.0.1, SVG Export Plug-In . SVG Version: 6.00 Build 0)  -->
<svg version="1.1" xmlns="http://www.w3.org/2000/svg" xmlns:xlink="http://www.w3.org/1999/xlink" x="0px" y="0px"
	 viewBox="0 0 431.33 362.98" style="enable-background:new 0 0 431.33 362.98;" xml:space="preserve">
<style type="text/css">
	.st0{fill-rule:evenodd;clip-rule:evenodd;fill:#85C156;}
	.st1{fill:#FFFFFF;}
</style>
<g id="Layer_1">
	<path class="st0" d="M186.75,49.88l10.79-9.69l-7.2-6.47l0.01,0.01c-2.03-1.81-4.71-2.91-7.64-2.91c-2.94,0-5.61,1.1-7.64,2.91
		l0.01-0.01l-36.44,32.72l0.01-0.01c-2.37,2.1-3.87,5.17-3.87,8.59v69.51c0,6.34,5.14,11.48,11.48,11.48h24.96V83.13
		c0-11.97,4.89-22.84,12.76-30.71C184.87,51.53,185.79,50.69,186.75,49.88L186.75,49.88z M173.82,178.98H123.3
		c-6.34,0-11.48-5.14-11.48-11.48V64.8h0.02c0-3.14,1.28-6.26,3.79-8.52L174.98,3c4.3-3.94,10.97-4.03,15.4-0.05l24.33,21.84
		l17.16,15.41l10.8,9.69c0.96,0.8,1.88,1.65,2.76,2.53c7.87,7.87,12.76,18.75,12.76,30.71v15.48c0,6.34-5.14,11.48-11.48,11.48
		c-6.34,0-11.48-5.14-11.48-11.48V83.13c0-5.63-2.31-10.76-6.04-14.48c-3.72-3.72-8.85-6.04-14.48-6.04
		c-5.63,0-10.76,2.31-14.48,6.04c-3.72,3.72-6.04,8.85-6.04,14.48v81.07c0,5.63,2.31,10.76,6.04,14.48
		c3.72,3.72,8.85,6.04,14.48,6.04c5.63,0,10.75-2.31,14.48-6.04c3.72-3.72,6.04-8.85,6.04-14.48v-19.67
		c0-6.34,5.14-11.48,11.48-11.48c6.34,0,11.48,5.14,11.48,11.48v11.48v8.19c0,0.18,0,0.35,0,0.52l0,0.08c0,0.16-0.01,0.32-0.01,0.48
		l0,0.07c-0.01,0.35-0.02,0.71-0.04,1.06l0,0.06c-0.01,0.16-0.02,0.33-0.03,0.49l0,0.06c-0.01,0.16-0.02,0.31-0.03,0.46l0,0.05
		l0,0.03c-0.01,0.17-0.03,0.34-0.04,0.51l0,0.01c-0.02,0.18-0.03,0.36-0.05,0.54l0,0.01c-0.02,0.17-0.04,0.35-0.06,0.52l0,0.03
		c-0.02,0.17-0.04,0.34-0.06,0.51l0,0.02l0,0.01c-0.02,0.16-0.04,0.32-0.06,0.48l-0.02,0.11c-0.02,0.15-0.04,0.3-0.07,0.44
		l-0.01,0.06c-0.02,0.15-0.05,0.29-0.07,0.44l-0.03,0.15l-0.07,0.41l-0.02,0.11c-0.03,0.14-0.05,0.28-0.08,0.42l-0.01,0.08
		l-0.08,0.38l-0.05,0.23l-0.07,0.31l-0.05,0.22l-0.07,0.3l-0.04,0.19l-0.08,0.35l-0.05,0.21l-0.07,0.27l-0.07,0.26l-0.08,0.31
		l-0.04,0.16l-0.09,0.32l-0.05,0.16l-0.06,0.22l-0.02,0.08l-0.09,0.32l-0.02,0.05l-0.07,0.22l0,0l-0.06,0.2l0,0.01l-0.07,0.22
		l-0.01,0.03l-0.1,0.32l-0.05,0.14l-0.12,0.36l-0.02,0.06l-0.14,0.4l-0.08,0.22c-2.2,6.05-5.7,11.47-10.17,15.94
		c-7.87,7.87-18.75,12.76-30.71,12.76c-11.97,0-22.84-4.89-30.71-12.76C179.52,190.45,176.02,185.02,173.82,178.98L173.82,178.98z
		 M223.29,17.07l17.28,15.52c1.77-1.12,3.87-1.77,6.12-1.77c2.94,0,5.61,1.1,7.64,2.91l-0.01-0.01l36.44,32.72l-0.01-0.01
		c2.37,2.1,3.87,5.17,3.87,8.59v69.51c0,6.34-5.14,11.48-11.48,11.48h-13.48v8.19c0,5.11-0.71,10.07-2.02,14.77h38.47
		c6.34,0,11.48-5.14,11.48-11.48V64.8c0-3.61-1.67-6.84-4.28-8.94L254.36,2.94c-4.42-3.98-11.09-3.88-15.4,0.05L223.29,17.07z"/>
	<g>
		<path class="st1" d="M108.36,236.09c-16.7,0-30.11,13.07-30.11,30c0,16.93,13.41,30,30.11,30s30.11-13.07,30.11-30
			C138.47,249.16,125.06,236.09,108.36,236.09z M108.36,279.5c-7.39,0-13.07-5.34-13.07-13.41c0-8.07,5.68-13.41,13.07-13.41
			c7.39,0,13.07,5.34,13.07,13.41C121.43,274.16,115.75,279.5,108.36,279.5z"/>
		<path class="st1" d="M178.09,236.09c-7.61,0-13.18,2.61-16.93,6.93v-5.34h-17.04v75.06h17.04v-23.59
			c3.75,4.32,9.32,6.93,16.93,6.93c14.88,0,27.16-13.07,27.16-30C205.25,249.16,192.98,236.09,178.09,236.09z M174.68,279.95
			c-7.84,0-13.52-5.34-13.52-13.86c0-8.52,5.68-13.86,13.52-13.86c7.84,0,13.52,5.34,13.52,13.86
			C188.2,274.61,182.52,279.95,174.68,279.95z"/>
		<path class="st1" d="M41.36,231.1c8.07,0,14.88,3.64,18.41,9.77l15.68-9.09c-6.93-11.25-19.66-18.41-34.09-18.41
			C17.38,213.37,0,231.32,0,254.73c0,23.41,17.38,41.36,41.36,41.36c14.54,0,27.27-7.16,34.09-18.41l-15.68-9.09
			c-3.41,6.14-10.34,9.77-18.41,9.77c-14.09,0-23.18-9.43-23.18-23.63C18.18,240.53,27.27,231.1,41.36,231.1z"/>
		<path class="st1" d="M385.69,243.03c-3.75-4.32-9.32-6.93-16.93-6.93c-14.88,0-27.16,13.07-27.16,30c0,16.93,12.27,30,27.16,30
			c7.61,0,13.18-2.61,16.93-6.93v5.34h17.04v-79.53h-17.04V243.03z M372.17,279.95c-7.84,0-13.52-5.34-13.52-13.86
			c0-8.52,5.68-13.86,13.52-13.86c7.84,0,13.52,5.34,13.52,13.86C385.69,274.61,380.01,279.95,372.17,279.95z"/>
		<rect x="412.36" y="237.69" class="st1" width="17.04" height="56.81"/>
		<path class="st1" d="M314.37,236.09c-7.5,0-13.18,2.73-16.25,6.93v-5.34h-17.04v56.81h17.04v-31.02c0-8.07,4.32-11.7,10.57-11.7
			c5.45,0,9.89,3.3,9.89,10.34v32.38h17.04v-34.88C335.62,244.28,325.85,236.09,314.37,236.09z"/>
		<path class="st1" d="M254.41,243.03c-3.75-4.32-9.32-6.93-16.93-6.93c-14.88,0-27.16,13.07-27.16,30c0,16.93,12.27,30,27.16,30
			c7.61,0,13.18-2.61,16.93-6.93v5.34h17.04v-56.81h-17.04V243.03z M240.89,279.95c-7.84,0-13.52-5.34-13.52-13.86
			c0-8.52,5.68-13.86,13.52-13.86c7.84,0,13.52,5.34,13.52,13.86C254.41,274.61,248.73,279.95,240.89,279.95z"/>
	</g>
	<circle class="st0" cx="419.85" cy="219.2" r="11.48"/>
</g>
<g id="Layer_2">
	<g>
		<path class="st1" d="M108.37,333.3l9.73,24.72l9.69-24.72h3.93l-12.01,29.39h-3.23l-12.05-29.39H108.37z"/>
		<path class="st1" d="M130.47,362.69l12.09-29.39h3.06l12.05,29.39h-3.97l-3.48-8.61h-12.34l-3.44,8.61H130.47z M144.09,337.61
			l-5.46,13.58h10.76L144.09,337.61z"/>
		<path class="st1" d="M178.75,339.47c-0.33-0.39-0.77-0.76-1.33-1.12s-1.17-0.68-1.86-0.97c-0.69-0.29-1.44-0.52-2.26-0.7
			s-1.66-0.27-2.55-0.27c-2.29,0-3.97,0.43-5.03,1.28c-1.06,0.86-1.59,2.03-1.59,3.52c0,0.8,0.15,1.46,0.46,1.99
			c0.3,0.52,0.78,0.97,1.43,1.34c0.65,0.37,1.46,0.7,2.42,0.97c0.97,0.28,2.11,0.57,3.44,0.87c1.52,0.33,2.89,0.71,4.12,1.14
			c1.23,0.43,2.28,0.96,3.15,1.59s1.53,1.41,1.99,2.32c0.46,0.91,0.68,2.03,0.68,3.35c0,1.41-0.28,2.63-0.83,3.66
			c-0.55,1.03-1.3,1.89-2.26,2.57c-0.95,0.68-2.08,1.17-3.38,1.49c-1.3,0.32-2.71,0.48-4.22,0.48c-2.26,0-4.41-0.35-6.44-1.06
			c-2.03-0.7-3.87-1.73-5.53-3.08l1.78-3.15c0.44,0.47,1.01,0.94,1.72,1.41c0.7,0.47,1.5,0.89,2.4,1.26c0.9,0.37,1.86,0.68,2.9,0.91
			c1.03,0.23,2.12,0.35,3.25,0.35c2.1,0,3.73-0.37,4.89-1.12c1.16-0.75,1.74-1.86,1.74-3.35c0-0.83-0.19-1.52-0.56-2.09
			c-0.37-0.56-0.92-1.06-1.63-1.47c-0.72-0.41-1.61-0.78-2.67-1.1c-1.06-0.32-2.27-0.64-3.62-0.97c-1.49-0.36-2.8-0.75-3.93-1.16
			c-1.13-0.41-2.08-0.91-2.84-1.49c-0.76-0.58-1.33-1.28-1.72-2.11c-0.39-0.83-0.58-1.82-0.58-2.98c0-1.41,0.26-2.65,0.79-3.73
			c0.52-1.08,1.26-1.99,2.19-2.73c0.94-0.75,2.06-1.3,3.35-1.68c1.3-0.37,2.7-0.56,4.22-0.56c1.99,0,3.78,0.3,5.38,0.91
			c1.6,0.61,3.02,1.42,4.26,2.44L178.75,339.47z"/>
		<path class="st1" d="M207.93,336.61h-10.14v26.08h-3.73v-26.08h-10.14v-3.31h24.01V336.61z"/>
		<path class="st1" d="M233.23,358.72c-2.59,2.79-5.58,4.18-8.94,4.18c-1.96,0-3.77-0.43-5.44-1.28c-1.67-0.86-3.11-1.98-4.33-3.37
			c-1.21-1.39-2.17-2.99-2.88-4.78c-0.7-1.79-1.06-3.64-1.06-5.55c0-1.99,0.34-3.87,1.04-5.65c0.69-1.78,1.64-3.35,2.86-4.72
			c1.21-1.37,2.66-2.45,4.35-3.25c1.68-0.8,3.5-1.2,5.46-1.2c2.84,0,5.18,0.59,7.02,1.78c1.83,1.19,3.24,2.73,4.2,4.64l-2.86,1.99
			c-0.88-1.71-2.06-2.98-3.52-3.81s-3.1-1.24-4.93-1.24c-1.49,0-2.84,0.33-4.06,0.97c-1.21,0.65-2.25,1.5-3.1,2.57
			c-0.86,1.06-1.52,2.29-1.99,3.68c-0.47,1.39-0.7,2.84-0.7,4.33c0,1.57,0.26,3.06,0.79,4.45s1.24,2.62,2.15,3.68s1.99,1.9,3.23,2.5
			c1.24,0.61,2.59,0.91,4.06,0.91c3.2,0,6.09-1.54,8.65-4.64v-4.06h-6.33v-2.81h9.48v14.66h-3.15V358.72z"/>
		<path class="st1" d="M254.34,362.9c-2.07,0-3.95-0.42-5.65-1.26s-3.15-1.96-4.37-3.35c-1.21-1.39-2.15-2.99-2.81-4.78
			c-0.66-1.79-0.99-3.63-0.99-5.51c0-1.96,0.35-3.84,1.06-5.63s1.68-3.38,2.92-4.76c1.24-1.38,2.71-2.48,4.41-3.29
			c1.7-0.81,3.54-1.22,5.53-1.22c2.07,0,3.95,0.43,5.63,1.3c1.68,0.87,3.13,2.01,4.35,3.42c1.21,1.41,2.15,3,2.82,4.78
			s0.99,3.6,0.99,5.44c0,1.96-0.35,3.84-1.06,5.63c-0.7,1.79-1.67,3.37-2.9,4.74c-1.23,1.37-2.69,2.46-4.39,3.27
			C258.17,362.49,256.33,362.9,254.34,362.9z M244.28,348c0,1.49,0.24,2.93,0.72,4.33c0.48,1.39,1.17,2.63,2.05,3.71
			c0.88,1.08,1.95,1.93,3.19,2.57c1.24,0.64,2.62,0.95,4.14,0.95c1.57,0,2.98-0.34,4.22-1.01c1.24-0.68,2.3-1.56,3.17-2.65
			c0.87-1.09,1.53-2.32,1.99-3.71c0.46-1.38,0.68-2.77,0.68-4.18c0-1.49-0.24-2.93-0.72-4.33c-0.48-1.39-1.17-2.62-2.07-3.68
			c-0.9-1.06-1.96-1.91-3.19-2.55c-1.23-0.63-2.59-0.95-4.08-0.95c-1.57,0-2.98,0.33-4.22,0.99c-1.24,0.66-2.3,1.53-3.17,2.61
			c-0.87,1.08-1.54,2.3-2.01,3.68C244.52,345.16,244.28,346.56,244.28,348z"/>
		<path class="st1" d="M293.59,359.38v3.31h-19.96V333.3h19.58v3.31h-15.86v9.52h13.79v3.1h-13.79v10.14H293.59z"/>
		<path class="st1" d="M299.09,362.69V333.3h10.18c2.35,0,4.41,0.39,6.19,1.16s3.26,1.82,4.45,3.15c1.19,1.33,2.08,2.88,2.67,4.66
			c0.59,1.78,0.89,3.68,0.89,5.69c0,2.24-0.33,4.26-0.99,6.07s-1.62,3.35-2.86,4.64c-1.24,1.28-2.74,2.28-4.49,2.98
			c-1.75,0.7-3.71,1.06-5.86,1.06H299.09z M319.71,347.96c0-1.66-0.23-3.18-0.68-4.58c-0.46-1.39-1.13-2.59-2.03-3.58
			c-0.9-0.99-1.99-1.77-3.29-2.34c-1.3-0.57-2.77-0.85-4.43-0.85h-6.46v22.77h6.46c1.68,0,3.18-0.29,4.49-0.87
			c1.31-0.58,2.4-1.38,3.27-2.4c0.87-1.02,1.53-2.23,1.99-3.62S319.71,349.59,319.71,347.96z"/>
	</g>
</g>
</svg>
